# AST/ASF file generated using VICON BodyLanguage
# -----------------------------------------------
:version 1.10
:name VICON
:units
  mass 1.0
  length 0.45
  angle deg
:documentation
   .ast/.asf automatically generated from VICON data using
   VICON BodyBuilder and BodyLanguage model FoxedUp or BRILLIANT.MOD
:root
   order TX TY TZ RX RY RZ
   axis XYZ
   position 0 0 0  
   orientation 0 0 0 
:bonedata
  begin
     id 1 
     name lhipjoint
     direction 0.711131 -0.61297 0.344326 
     length 2.29162 
     axis 0 0 0  XYZ
  end
  begin
     id 2 
     name lfemur
     direction 0.34202 -0.939693 0  
     length 6.71424  
     axis 0 0 20  XYZ
    dof rx ry rz
    limits (-160.0 20.0)
           (-70.0 70.0)
           (-60.0 70.0)
  end
  begin
     id 3 
     name ltibia
     direction 0.34202 -0.939693 0   
     length 6.7087   
     axis 0 0 20   XYZ
    dof rx
    limits (-10.0 170.0)
  end
  begin
     id 4 
     name lfoot
     direction 0.0230374 -0.0632947 0.997729   
     length 1.56743   
     axis -90 7.62852e-016 20   XYZ
    dof rx rz
    limits (-45.0 90.0)
           (-70.0 20.0)
  end
  begin
     id 5 
     name ltoes
     direction 1.53585e-011 -4.21885e-011 1   
     length 0.802914   
     axis -90 7.62852e-016 20   XYZ
    dof rx
    limits (-90.0 20.0)
  end
  begin
     id 6 
     name rhipjoint
     direction -0.733192 -0.592884 0.333043   
     length 2.36925  
     axis 0 0 0  XYZ 
  end
  begin
     id 7 
     name rfemur
     direction -0.34202 -0.939693 0   
     length 6.67027   
     axis 0 0 -20   XYZ
    dof rx ry rz
    limits (-160.0 20.0)
           (-70.0 70.0)
           (-70.0 60.0)
  end
  begin
     id 8 
     name rtibia
     direction -0.34202 -0.939693 0   
     length 6.6862   
     axis 0 0 -20   XYZ
    dof rx
    limits (-10.0 170.0)
 end
 begin
     id 9 
     name rfoot
     direction -0.0949739 -0.260939 0.960672   
     length 1.67698  
     axis -90 -7.62852e-016 -20   XYZ
    dof rx rz
    limits (-45.0 90.0)
           (-20.0 70.0)
  end
  begin
     id 10 
     name rtoes
     direction -1.5353e-011 -4.21868e-011 1   
     length 0.846298   
     axis -90 -7.62852e-016 -20   XYZ
    dof rx
    limits (-90.0 20.0)
  end
  begin
     id 11 
     name lowerback
     direction -0.0206828 0.999785 -0.00109866   
     length 2.04382   
     axis 0 0 0   XYZ
    dof rx ry rz
    limits (-20.0 45.0)
           (-30.0 30.0)
           (-30.0 30.0)
  end
  begin
     id 12 
     name upperback
     direction -0.0105003 0.999727 -0.0208904   
     length 2.04538   
     axis 0 0 0   XYZ
    dof rx ry rz
    limits (-20.0 45.0)
           (-30.0 30.0)
           (-30.0 30.0)
  end
  begin
     id 13 
     name thorax
     direction -0.000416255 0.999808 -0.0196023   
     length 2.0399   
     axis 0 0 0   XYZ
    dof rx ry rz
    limits (-20.0 45.0)
           (-30.0 30.0)
           (-30.0 30.0)
  end
  begin
     id 14 
     name lowerneck
     direction 0.0627861 0.989205 0.13241   
     length 1.46207   
     axis 0 0 0   XYZ
    dof rx ry rz
    limits (-20.0 45.0)
           (-30.0 30.0)
           (-30.0 30.0)
  end
  begin
     id 15 
     name upperneck
     direction 0.00627179 0.994526 0.104303   
     length 1.41419   
     axis 0 0 0   XYZ
    dof rx ry rz
    limits (-20.0 45.0)
           (-30.0 30.0)
           (-30.0 30.0)
  end
  begin
     id 16
     name head
     direction -0.00443838 0.999688 0.0245968  
     length 1.50718  
     axis 0 0 0   XYZ
    dof rx ry rz
    limits (-20.0 45.0)
           (-30.0 30.0)
           (-30.0 30.0)
  end
  begin
     id 17 
     name lclavicle
     direction 0.758742 0.650995 -0.0227258  
     length 2.86888  
     axis 0 0 0   XYZ
    dof ry rz
    limits (-20.0 10.0)
           (0.0 20.0)
  end
  begin
     id 18 
     name lhumerus
     direction 1 -4.48962e-011 1.06664e-027   
     length 4.65776   
     axis -180 -30 -90   XYZ
    dof rx ry rz
    limits (-60.0 90.0)
           (-90.0 90.0)
           (-90.0 90.0)
  end
  begin
     id 19
     name lradius
     direction 1 -4.48968e-011 1.40404e-026   
     length 3.55539   
     axis -180 -30 -90   XYZ
    dof rx
    limits (-10.0 170.0)
  end
  begin
     id 20
     name lwrist
     direction 1 -4.48976e-011 3.32647e-026   
     length 1.77769   
     axis -2.20186e-014 90 90   XYZ
    dof ry
    limits (-180.0 0.0)
 end
  begin
     id 21 
     name lhand
     direction 1 -4.48982e-011 6.65293e-026   
     length 0.707264   
     axis -4.24514e-014 90 90   XYZ
    dof rx rz
    limits (-90.0 90.0)
           (-45.0 45.0)
  end
  begin
     id 22 
     name lfingers
     direction 1 -4.48966e-011 1.33059e-025   
     length 0.570215   
     axis -8.49028e-014 90 90   XYZ
    dof rx
    limits (0.0 90.0)
  end
  begin
     id 23
     name lthumb
     direction 0.707107 -6.3493e-011 0.707107   
     length 0.818718   
     axis -90 45 2.85299e-015   XYZ
    dof rx rz
    limits (-45.0 45.0)
           (-45.0 45.0)
  end
  begin
     id 24 
     name rclavicle
     direction -0.870343 0.482028 -0.100759   
     length 3.2251  
     axis 0 0 0   XYZ 
    dof ry rz
    limits (-10.0 20.0)
           (-20.0 0.0)
  end
  begin
     id 25 
     name rhumerus
     direction -1 -4.48974e-011 -9.45849e-028  
     length 4.71925   
     axis -180 30 90   XYZ
    dof rx ry rz
    limits (-90.0 60.0)
           (-90.0 90.0)
           (-90.0 90.0)
  end
  begin
     id 26 
     name rradius
     direction -1 -4.48965e-011 1.17607e-026   
     length 3.5699   
     axis -180 30 90   XYZ
    dof rx
    limits (-10.0 170.0)
  end
  begin
     id 27 
     name rwrist
     direction -1 -4.48968e-011 3.32647e-026   
     length 1.78495   
     axis -2.20186e-014 -90 -90   XYZ
    dof ry
    limits (-180.0 0.0)
  end
  begin
     id 28
     name rhand
     direction -1 -4.48995e-011 6.65293e-026   
     length 0.507757   
     axis -4.24514e-014 -90 -90   XYZ
    dof rx rz
    limits (-90.0 90.0)
           (-45.0 45.0)
  end
  begin
     id 29
     name rfingers
     direction -1 -4.48864e-011 1.33059e-025   
     length 0.409367   
     axis -8.49028e-014 -90 -90   XYZ
    dof rx
    limits (0.0 90.0)
  end
  begin
     id 30
     name rthumb
     direction -0.707107 -6.3494e-011 0.707107   
     length 0.587771   
     axis -90 -45 -2.85299e-015   XYZ
    dof rx rz
    limits (-45.0 45.0)
           (-45.0 45.0)
  end
:hierarchy
  begin
    root lhipjoint rhipjoint lowerback
    lhipjoint lfemur
    lfemur ltibia
    ltibia lfoot
    lfoot ltoes
    rhipjoint rfemur
    rfemur rtibia
    rtibia rfoot
    rfoot rtoes
    lowerback upperback
    upperback thorax
    thorax lowerneck lclavicle rclavicle
    lowerneck upperneck
    upperneck head
    lclavicle lhumerus
    lhumerus lradius
    lradius lwrist
    lwrist lhand lthumb
    lhand lfingers
    rclavicle rhumerus
    rhumerus rradius
    rradius rwrist
    rwrist rhand rthumb
    rhand rfingers
  end

#!OML:ASF E:\Steps\Project 1\Capture day 1\Session 2\Subject.ASF
:FULLY-SPECIFIED
:DEGREES
60
root 7.04952 16.3029 31.0866 -154.743 -3.5509 178.421
lowerback -28.7211 -2.03594 -6.38462
upperback -0.807176 -1.15356 0.318441
thorax 14.4303 -1.17424 3.32738
lowerneck -2.5382 -2.94313 -0.717145
upperneck 17.9627 -5.74843 3.21788
head 5.96122 -3.07988 0.745365
rclavicle 1.04113e-014 6.16232e-015
rhumerus -37.7721 -24.645 -73.8526
rradius 29.0664
rwrist 5.64143
rhand -7.73339 -56.0833
rfingers 7.12502
rthumb 18.1654 -85.255
lclavicle 1.04113e-014 6.16232e-015
lhumerus -30.6919 13.5173 77.4052
lradius 16.1735
lwrist -10.7306
lhand -20.8271 -13.515
lfingers 7.12502
lthumb 5.54126 16.3925
rfemur -21.5887 6.80189 19.4046
rtibia 6.34371
rfoot -19.6297 -9.07461
rtoes -32.5256
lfemur -22.5838 -8.54492 -19.8624
ltibia 9.40118
lfoot -10.2849 4.21922
ltoes -32.0934
61
root 7.05439 16.2912 31.097 -154.192 -3.24245 178.713
lowerback -29.1793 -1.88943 -6.23464
upperback -0.948679 -1.03399 0.422465
thorax 14.466 -1.12625 3.39459
lowerneck -2.7228 -2.93471 -0.778393
upperneck 18.1138 -5.74477 3.22428
head 6.04242 -3.07833 0.751581
rclavicle -9.93923e-017 1.59028e-015
rhumerus -37.6936 -24.5556 -73.8689
rradius 28.9386
rwrist 6.06193
rhand -8.20669 -57.0138
rfingers 7.12502
rthumb 17.71 -86.2273
lclavicle -9.93923e-017 1.59028e-015
lhumerus -30.7904 13.6093 77.3617
lradius 16.1057
lwrist -10.6341
lhand -21.0124 -13.464
lfingers 7.12502
lthumb 5.36233 16.4482
rfemur -22.5305 6.81062 19.6683
rtibia 6.76963
rfoot -19.3954 -8.67576
rtoes -33.1349
lfemur -23.2809 -8.20756 -19.5073
ltibia 9.47155
lfoot -10.2707 4.33269
ltoes -31.6163
62
root 7.05337 16.3006 31.0878 -154.58 -3.67073 178.601
lowerback -28.7644 -2.06416 -6.41217
upperback -0.856187 -1.21736 0.550706
thorax 14.4086 -1.21186 3.57008
lowerneck -2.8393 -2.99397 -0.987439
upperneck 18.1145 -5.80918 3.29293
head 6.07165 -3.11207 0.801207
rclavicle -1.03865e-014 -1.19271e-015
rhumerus -37.7159 -24.7787 -73.4273
rradius 28.7227
rwrist 5.89047
rhand -7.76238 -55.3483
rfingers 7.12502
rthumb 18.1375 -84.5226
lclavicle -1.03865e-014 -1.19271e-015
lhumerus -30.8736 13.8996 77.3801
lradius 15.9614
lwrist -10.8088
lhand -20.8908 -13.3115
lfingers 7.12502
lthumb 5.47982 16.5976
rfemur -21.8151 6.66508 19.681
rtibia 6.45021
rfoot -19.6018 -8.94534
rtoes -32.4856
lfemur -22.8179 -8.43207 -19.5778
ltibia 9.40739
lfoot -10.1416 4.07548
ltoes -31.6143
63
root 7.05611 16.2895 31.0956 -154.036 -3.32219 178.811
lowerback -29.2468 -1.84678 -6.18441
upperback -0.993087 -1.00983 0.499606
thorax 14.4448 -1.11586 3.45938
lowerneck -2.8441 -3.092 -0.929837
upperneck 18.0466 -5.95423 3.37029
head 6.0555 -3.17177 0.807614
rclavicle 1.71452e-015 1.07344e-014
rhumerus -37.7029 -24.7101 -73.6965
rradius 28.7695
rwrist 6.41752
rhand -8.18452 -55.3374
rfingers 7.12502
rthumb 17.7313 -84.549
lclavicle 1.71452e-015 1.07344e-014
lhumerus -30.8756 14.208 77.0822
lradius 15.737
lwrist -11.2582
lhand -20.7827 -13.1998
lfingers 7.12502
lthumb 5.58412 16.7066
rfemur -22.7582 6.56685 19.8409
rtibia 6.91886
rfoot -19.7327 -8.43626
rtoes -32.4889
lfemur -23.459 -8.28976 -19.3198
ltibia 9.45562
lfoot -10.0925 4.38244
ltoes -32.4722
64
root 7.05805 16.2909 31.0924 -154.083 -3.3594 178.838
lowerback -29.211 -1.83048 -6.15092
upperback -0.96382 -0.99344 0.487213
thorax 14.4605 -1.10463 3.43535
lowerneck -2.63247 -3.22507 -0.787704
upperneck 17.7289 -6.09416 3.28119
head 5.91567 -3.23504 0.757236
rclavicle -6.31141e-015 -1.09332e-014
rhumerus -37.7049 -24.9128 -73.6596
rradius 28.6602
rwrist 6.7239
rhand -8.24806 -57.904
rfingers 7.12502
rthumb 17.6701 -87.121
lclavicle -6.31141e-015 -1.09332e-014
lhumerus -30.9042 14.5448 76.8377
lradius 15.5719
lwrist -11.6647
lhand -20.8495 -13.3379
lfingers 7.12502
lthumb 5.51962 16.5702
rfemur -22.674 6.55304 19.9049
rtibia 6.88783
rfoot -19.7857 -8.43971
rtoes -32.6571
lfemur -23.369 -8.33329 -19.2789
ltibia 9.41318
lfoot -10.1489 4.43004
ltoes -32.8277
65
root 7.06036 16.2894 31.0934 -154.016 -3.3708 178.847
lowerback -29.2063 -1.82656 -6.14958
upperback -1.00514 -0.996298 0.485755
thorax 14.4102 -1.10601 3.43142
lowerneck -2.58273 -3.28412 -0.760314
upperneck 17.6242 -6.14913 3.20967
head 5.87244 -3.26283 0.729903
rclavicle 2.33572e-015 9.14409e-015
rhumerus -37.7594 -25.0192 -73.5776
rradius 28.5502
rwrist 6.74548
rhand -8.08235 -58.5795
rfingers 7.12502
rthumb 17.8296 -87.7822
lclavicle 2.33572e-015 9.14409e-015
lhumerus -31.0158 14.3878 76.792
lradius 15.5867
lwrist -11.5786
lhand -20.6659 -13.4794
lfingers 7.12502
lthumb 5.69691 16.424
rfemur -22.7542 6.56704 19.9347
rtibia 6.89022
rfoot -19.7683 -8.4608
rtoes -32.5646
lfemur -23.4616 -8.24042 -19.264
ltibia 9.44899
lfoot -10.2413 4.32037
ltoes -32.1752
66
root 7.05979 16.2899 31.0919 -154.054 -3.41931 178.843
lowerback -29.1225 -1.80454 -6.11462
upperback -1.01207 -0.980348 0.468202
thorax 14.3613 -1.0938 3.40129
lowerneck -2.72142 -3.27754 -0.621069
upperneck 17.8369 -6.15377 3.06688
head 5.95517 -3.26672 0.655521
rclavicle -1.15295e-014 1.86858e-014
rhumerus -37.8265 -25.1695 -73.4959
rradius 28.4893
rwrist 6.80956
rhand -8.08511 -58.7152
rfingers 7.12502
rthumb 17.8269 -87.9181
lclavicle -1.15295e-014 1.86858e-014
lhumerus -31.0584 14.3187 76.7163
lradius 15.5207
lwrist -11.7405
lhand -20.5138 -13.5687
lfingers 7.12502
lthumb 5.84376 16.3307
rfemur -22.6941 6.45154 19.9457
rtibia 6.85993
rfoot -19.7275 -8.40445
rtoes -32.452
lfemur -23.4014 -8.40327 -19.227
ltibia 9.40574
lfoot -10.2794 4.43101
ltoes -31.9667
